# xmcd
#
# Track frame offsets: 
#        150
#        12645
#        27465
#        38335
#        52122
#        65525
#        80735
#        93225
#        106992
#        117300
#        131592
#        143780
#        157407
#        169402
#        183022
#        194075
#        206375
#
# Disc length: 2920 seconds
#
# Revision: 2
# Processed by: cddbd v1.5.2PL0 Copyright (c) Steve Scherf et al.
# Submitted via: ExactAudioCopy v0.99pb4
#
DISCID=f70b6611
DTITLE=Various Artist - Whose Muddy Shoes
DYEAR=1900
DGENRE=Blues
TTITLE0=John Brim - Ice Cream Man
TTITLE1=Elmore James - Whose Muddy Shoes
TTITLE2=Elmore James - Madison Blues
TTITLE3=Elmore James - I See My Baby
TTITLE4=John Brim - You Got Me
TTITLE5=Elmore James - My Best Friend
TTITLE6=Elmore James - The Sun Is Shining
TTITLE7=John Brim - Lifetime Baby
TTITLE8=Elmore James - Talk to Me Baby (I Can't Hold Out)
TTITLE9=John Brim - Rattlesnake
TTITLE10=John Brim - Be Careful
TTITLE11=Elmore James - Dust My Broom
TTITLE12=Elmore James - Tool Bag Boogie
TTITLE13=John Brim - Tough Times
TTITLE14=Elmore James - Call It Stormy Monday
TTITLE15=Elmore James - The Sun Is Shining [alternate]
TTITLE16=John Brim - Gary Stomp
EXTD=
EXTT0=
EXTT1=
EXTT2=
EXTT3=
EXTT4=
EXTT5=
EXTT6=
EXTT7=
EXTT8=
EXTT9=
EXTT10=
EXTT11=
EXTT12=
EXTT13=
EXTT14=
EXTT15=
EXTT16=
PLAYORDER=
